<?xml version="1.0" encoding="utf-8"?>
<!-- Generator: Adobe Illustrator 16.0.0, SVG Export Plug-In . SVG Version: 6.00 Build 0)  -->
<!DOCTYPE svg PUBLIC "-//W3C//DTD SVG 1.1//EN" "http://www.w3.org/Graphics/SVG/1.1/DTD/svg11.dtd">
<svg version="1.1" id="Layer_1" xmlns="http://www.w3.org/2000/svg" xmlns:xlink="http://www.w3.org/1999/xlink" x="0px" y="0px"
	 width="2596.249px" height="578px" viewBox="366.295 0 2596.249 578" enable-background="new 366.295 0 2596.249 578"
	 xml:space="preserve">
<defs>
	<filter id="Adobe_OpacityMaskFilter" filterUnits="userSpaceOnUse" x="366.295" y="9.977" width="2596.249" height="554.539">
		<feColorMatrix  type="matrix" values="1 0 0 0 0  0 1 0 0 0  0 0 1 0 0  0 0 0 1 0"/>
	</filter>
</defs>
<mask maskUnits="userSpaceOnUse" x="366.295" y="9.977" width="2596.249" height="554.539" id="SVGID_1_">
	<g filter="url(#Adobe_OpacityMaskFilter)">
		
			<linearGradient id="SVGID_2_" gradientUnits="userSpaceOnUse" x1="1298.9995" y1="596.5889" x2="1298.9995" y2="736.1562" gradientTransform="matrix(1 0 0 1 188 -213)">
			<stop  offset="0" style="stop-color:#FFFFFF"/>
			<stop  offset="0.0711" style="stop-color:#DFDFDF"/>
			<stop  offset="0.2152" style="stop-color:#A5A5A5"/>
			<stop  offset="0.3592" style="stop-color:#737373"/>
			<stop  offset="0.4997" style="stop-color:#494949"/>
			<stop  offset="0.6363" style="stop-color:#292929"/>
			<stop  offset="0.7675" style="stop-color:#121212"/>
			<stop  offset="0.8914" style="stop-color:#050505"/>
			<stop  offset="1" style="stop-color:#000000"/>
		</linearGradient>
		<rect fill="url(#SVGID_2_)" width="2974" height="578"/>
	</g>
</mask>
<g mask="url(#SVGID_1_)">
	<g>
		<path fill="#0065B2" d="M366.472,135l149.525,0.001l0.849-1.582c1.099-2.044,29.423-4.529,29.476-1.37l0.046,2.952h157.631
			l0.849-1.582c1.099-2.044,29.423-4.529,29.476-1.37l0.046,2.952h87.753l39.857-25.67l-0.319-1.945
			c-0.894-5.394,1.538-11.737,6.34-16.552c4.098-4.108,24.427-1.11,24.427-1.11l32.705-21.062l141.588,0.973l0.836-1.669
			c1.117-2.231,29.682,1.879,29.682,1.879l69.23,0.476l0.812-1.752c1.146-2.478,29.787,1.963,29.787,1.963l54.977,0.377l0.858-1.582
			c1.091-2.011,29.395-4.373,29.422-1.165l0.024,2.955l80.342,0.552l96.444,1.043l0.867-1.565c1.08-1.949,29.282-4.224,29.32-1.04
			l0.035,2.932l132.365,1.432l0.646-2.165c0.52-1.733,1.382-3.283,2.567-4.605c2.362-2.639,16.985-2.631,19.944,0.021
			c1.672,1.496,2.992,3.287,3.928,5.324l0.793,1.728l36.271,0.392l121.908-11.695l-0.048-2.774
			c-0.059-3.171,27.091-3.722,28.151-1.76l0.946,1.748l132.46-12.707l-0.237-2.945c-0.271-3.383,28.032-3.098,29.174-1.406
			l0.996,1.479l231.354-22.194l29.43,1.108L2260,20.895c-0.008-2.894,29.605-0.098,30.91,2.667l0.777,1.649l169.058,6.363
			l0.542-2.442c0.39-1.759,28.914,2.143,30.232,4.669l0.682,1.305l258.488,46.425c0,0,30.477,1.026,31.752,4.257l0.614,1.555
			l179.488,32.236l-1.062,5.906L2783.898,93.59l-0.851,2.404c-0.437,1.23-28.954-3.942-30.262-6.712l-0.661-1.398L2494.023,41.53
			l-0.567,2.899c-0.37,1.895-29.366-2.382-30.672-5.152l-0.777-1.651l-169.054-6.363l-0.54,2.445
			c-0.39,1.762-27.738-0.714-28.851-2.336l-0.854-1.248l-31.956-1.202l-229.132,21.981l0.062,2.784
			c0.062,3.016-27.563,2.789-28.588,1.41l-1.01-1.361l-133.943,12.849l-0.38,2.272c-0.368,2.203-20.348,7.702-23.804,4.607
			c-0.935-0.836-1.815-1.802-2.621-2.871l-1.011-1.34l-124.198,11.915L1650.3,80.78l-0.646,2.165
			c-0.519,1.729-25.5,1.295-26.437-0.739l-0.794-1.727l-135.379-1.466l-0.896,1.415c-0.956,1.513-28.371,3.688-28.609,0.97
			l-0.238-2.707l-94.669-1.025l-82.637-0.567l-0.893,1.399c-0.954,1.496-28.271,3.722-28.542,1.075l-0.271-2.679l-56.121-0.385
			l-0.907,1.239c-0.742,1.014-27.115,3.152-27.538,0.975l-0.468-2.412l-70.682-0.486l-0.901,1.316
			c-0.871,1.272-27.686,3.447-28.043,1.026l-0.376-2.544l-138.382-0.95L893.354,96.26l-0.198,1.345
			c-0.636,4.28-24.502,18.14-26.1,17.341l-1.527-0.766L823.883,141h-91.829l-0.883,1.4c-0.961,1.524-2.088,2.939-3.351,4.205
			c-4.159,4.171-24.96-0.327-25.245-2.931L702.284,141h-158.23l-0.883,1.4c-0.961,1.524-2.088,2.939-3.351,4.205
			c-4.159,4.171-25.536-5.605-25.536-5.605l-147.989,0.001L366.472,135z"/>
		<path fill="#F78E1C" d="M1381.432,519.756l-1.345,0.812c-3.457,2.085-24.605-14.124-19.189-22.663l0.793-1.253l-25.775-29.936
			l1.321-22.803l-1.455-0.483c-7.021-2.334-6.188-27.378,1.758-29.298l1.442-0.349l4.477-77.788l-1.462-0.479
			c-6.542-2.146-5.771-24.98,1.618-26.762l1.441-0.347l2.284-39.439l-1.45-0.485c-6.479-2.165-5.712-24.896,1.614-26.705
			l1.433-0.354l4.672-80.667l-1.379-0.518c-6.078-2.282-5.441-24.281,1.587-26.284l1.366-0.389l2.711-46.806l7.985,0.462
			l-2.678,46.221l1.575,0.42c7.062,1.887,6.251,25.868-1.653,27.317l-1.545,0.284l-4.641,80.139l1.503,0.459
			c6.668,2.037,5.994,25.287-1.63,26.963l-1.48,0.326l-2.272,39.278l1.491,0.465c6.604,2.059,5.933,25.2-1.627,26.906l-1.471,0.332
			l-4.464,77.568l1.54,0.438c7.415,2.115,6.544,28.113-1.786,29.756l-1.521,0.301l-1.133,19.551l23.113,26.842l1.479-1.023
			c3.795-2.625,25.956,14.381,19.617,23.174l-0.99,1.375l44.641,44.986l-6.055,5.215L1381.432,519.756z"/>
		<g>
			<polygon fill="#BF3597" points="1259.204,218.568 825.324,140.072 832.979,135.142 1260.8,212.76 1341.116,242.94 
				1337.564,247.831 			"/>
		</g>
	</g>
	<circle fill="#0065B2" cx="531.568" cy="138.405" r="17.571"/>
	<circle fill="#0065B2" cx="718.568" cy="138.405" r="17.571"/>
	<circle fill="#0065B2" cx="878.568" cy="101.31" r="17.571"/>
	<circle fill="#0065B2" cx="1080.068" cy="71.548" r="17.571"/>
	<circle fill="#0065B2" cx="1181.068" cy="73.548" r="17.571"/>
	<circle fill="#0065B2" cx="1266.568" cy="73.548" r="17.571"/>
	<circle fill="#FFFFFF" stroke="#0065B2" stroke-miterlimit="10" cx="1361.906" cy="73.548" r="17.571"/>
	<circle fill="#0065B2" cx="1473.568" cy="75.548" r="17.571"/>
	<circle fill="#F78E1C" cx="1358.901" cy="146.881" r="17.571"/>
	<circle fill="#F78E1C" cx="1353.354" cy="255.548" r="17.571"/>
	<circle fill="#F78E1C" cx="1348.575" cy="323.429" r="17.571"/>
	<circle fill="#F78E1C" cx="1342.33" cy="428.43" r="17.571"/>
	<circle fill="#F78E1C" cx="1373.664" cy="504.43" r="17.571"/>
	<circle fill="#0065B2" cx="1635.568" cy="75.548" r="17.571"/>
	<circle fill="#0065B2" cx="1822.568" cy="64.048" r="17.571"/>
	<circle fill="#0065B2" cx="1985.568" cy="48.548" r="17.571"/>
	<circle fill="#0065B2" cx="2276.568" cy="27.548" r="17.571"/>
	<circle fill="#0065B2" cx="2477.568" cy="36.243" r="17.571"/>
	<circle fill="#0065B2" cx="2768.068" cy="85.743" r="17.571"/>
</g>
</svg>
